# xmcd CD database file
# Copyright (C) 1996 Ti Kan
#
# Track frame offsets:
#	150
#	13446
#	25272
#	36680
#	53091
#	68420
#	79656
#	97184
#	107066
#	124689
#	138601
#	155162
#	171850
#	189273
# Disc length: 2686 seconds
#
# Revision: 2
# Processed by: cddbd v1.4PL0 Copyright (c) Steve Scherf et al.
# Submitted via: CDCOPY 4.900
#
DISCID=c40a7c0e
DTITLE=Auldridge, Bennett and Gaudreau - Blue Lonesome Wind
DYEAR=1900
DGENRE=
TTITLE0=Blue Lonesome Wind
TTITLE1=Satisfied to Stay
TTITLE2=My Aching Heart
TTITLE3=Welcome to New York
TTITLE4=City of Lost Souls
TTITLE5=Too Many Tears
TTITLE6=New Sweet Home
TTITLE7=Are You Lost In Sin
TTITLE8=Sweet Prarie Hay
TTITLE9=Dog Pause
TTITLE10=It Won't Be Long
TTITLE11=Home Sweet Home Revisited
TTITLE12=Rigel Stomp
TTITLE13=Come Back Home
EXTD=
EXTT0=
EXTT1=
EXTT2=
EXTT3=
EXTT4=
EXTT5=
EXTT6=
EXTT7=
EXTT8=
EXTT9=
EXTT10=
EXTT11=
EXTT12=
EXTT13=
PLAYORDER=
